<svg width="19" height="12" viewBox="0 0 19 12" fill="none" xmlns="http://www.w3.org/2000/svg">
<path d="M15.5 2C15.775 2 16 2.225 16 2.5V9.5C16 9.775 15.775 10 15.5 10H2.5C2.225 10 2 9.775 2 9.5V2.5C2 2.225 2.225 2 2.5 2H15.5ZM2.5 0C1.11875 0 0 1.11875 0 2.5V9.5C0 10.8813 1.11875 12 2.5 12H15.5C16.8813 12 18 10.8813 18 9.5V8C18.5531 8 19 7.55312 19 7V5C19 4.44688 18.5531 4 18 4V2.5C18 1.11875 16.8813 0 15.5 0H2.5ZM4.25 3.5C3.83437 3.5 3.5 3.83437 3.5 4.25V7.75C3.5 8.16562 3.83437 8.5 4.25 8.5H13.75C14.1656 8.5 14.5 8.16562 14.5 7.75V4.25C14.5 3.83437 14.1656 3.5 13.75 3.5H4.25Z" fill="white"/>
</svg>
