<svg width="22" height="22" viewBox="0 0 22 22" fill="none" xmlns="http://www.w3.org/2000/svg">
<path d="M11 4.46875C11.5695 4.46875 12.0312 4.00704 12.0312 3.4375C12.0312 2.86796 11.5695 2.40625 11 2.40625C10.4305 2.40625 9.96875 2.86796 9.96875 3.4375C9.96875 4.00704 10.4305 4.46875 11 4.46875Z" stroke="currentColor" stroke-width="2.0625" stroke-linecap="round" stroke-linejoin="round"/>
<path d="M11 12.0312C11.5695 12.0312 12.0312 11.5695 12.0312 11C12.0312 10.4305 11.5695 9.96875 11 9.96875C10.4305 9.96875 9.96875 10.4305 9.96875 11C9.96875 11.5695 10.4305 12.0312 11 12.0312Z" stroke="currentColor" stroke-width="2.0625" stroke-linecap="round" stroke-linejoin="round"/>
<path d="M11 19.5938C11.5695 19.5938 12.0312 19.132 12.0312 18.5625C12.0312 17.993 11.5695 17.5312 11 17.5312C10.4305 17.5312 9.96875 17.993 9.96875 18.5625C9.96875 19.132 10.4305 19.5938 11 19.5938Z" stroke="currentColor" stroke-width="2.0625" stroke-linecap="round" stroke-linejoin="round"/>
</svg>
