<svg width="24" height="24" viewBox="0 0 24 24" fill="none" xmlns="http://www.w3.org/2000/svg">
<path d="M2 9.25C2 7.32718 2.76384 5.48311 4.12348 4.12348C5.48311 2.76384 7.32718 2 9.25 2H12.75C13.3916 2 14.0189 2.18992 14.5528 2.54584C15.0866 2.90175 15.5032 3.40773 15.75 4H13.975C13.659 3.69 13.227 3.5 12.75 3.5H9.25C7.72501 3.5 6.26247 4.1058 5.18414 5.18414C4.1058 6.26247 3.5 7.72501 3.5 9.25V12.75C3.5 13.227 3.69 13.66 4 13.975V15.75C3.40773 15.5032 2.90175 15.0866 2.54584 14.5528C2.18992 14.0189 2 13.3916 2 12.75V9.25ZM5 10.25C5 7.35 7.35 5 10.25 5H15.75C16.3916 5 17.0189 5.18992 17.5528 5.54584C18.0866 5.90175 18.5032 6.40772 18.75 7H16.975C16.659 6.69 16.227 6.5 15.75 6.5H10.25C9.25544 6.5 8.30161 6.89509 7.59835 7.59835C6.89509 8.30161 6.5 9.25544 6.5 10.25V15.75C6.5 16.227 6.69 16.66 7 16.975V18.75C6.40772 18.5032 5.90175 18.0866 5.54584 17.5528C5.18992 17.0189 5 16.3916 5 15.75V10.25ZM11.25 8C10.388 8 9.5614 8.34241 8.9519 8.9519C8.34241 9.5614 8 10.388 8 11.25V18.75C8 19.1768 8.08406 19.5994 8.24739 19.9937C8.41072 20.388 8.65011 20.7463 8.9519 21.0481C9.25369 21.3499 9.61197 21.5893 10.0063 21.7526C10.4006 21.9159 10.8232 22 11.25 22H18.75C19.1768 22 19.5994 21.9159 19.9937 21.7526C20.388 21.5893 20.7463 21.3499 21.0481 21.0481C21.3499 20.7463 21.5893 20.388 21.7526 19.9937C21.9159 19.5994 22 19.1768 22 18.75V11.25C22 10.8232 21.9159 10.4006 21.7526 10.0063C21.5893 9.61197 21.3499 9.25369 21.0481 8.9519C20.7463 8.65011 20.388 8.41072 19.9937 8.24739C19.5994 8.08406 19.1768 8 18.75 8H11.25ZM9.5 11.25C9.5 10.284 10.284 9.5 11.25 9.5H18.75C19.716 9.5 20.5 10.284 20.5 11.25V18.75C20.5 19.2141 20.3156 19.6592 19.9874 19.9874C19.6592 20.3156 19.2141 20.5 18.75 20.5H11.25C10.7859 20.5 10.3408 20.3156 10.0126 19.9874C9.68437 19.6592 9.5 19.2141 9.5 18.75V11.25Z" fill="white"/>
</svg>
