<svg width="24" height="24" viewBox="0 0 24 24" fill="none" xmlns="http://www.w3.org/2000/svg">
<path d="M5.125 19.3286H8.3125V13.9C8.3125 13.5924 8.4145 13.3347 8.6185 13.127C8.8225 12.9192 9.07467 12.815 9.375 12.8143H13.625C13.926 12.8143 14.1786 12.9185 14.3826 13.127C14.5866 13.3354 14.6882 13.5931 14.6875 13.9V19.3286H17.875V9.55714L11.5 4.67143L5.125 9.55714V19.3286ZM3 19.3286V9.55714C3 9.21333 3.07544 8.88762 3.22631 8.58C3.37719 8.27238 3.58508 8.01905 3.85 7.82L10.225 2.93429C10.5969 2.64476 11.0219 2.5 11.5 2.5C11.9781 2.5 12.4031 2.64476 12.775 2.93429L19.15 7.82C19.4156 8.01905 19.6239 8.27238 19.7747 8.58C19.9256 8.88762 20.0007 9.21333 20 9.55714V19.3286C20 19.9257 19.7917 20.4371 19.3752 20.8627C18.9587 21.2883 18.4587 21.5007 17.875 21.5H13.625C13.324 21.5 13.0718 21.3958 12.8685 21.1873C12.6652 20.9789 12.5632 20.7212 12.5625 20.4143V14.9857H10.4375V20.4143C10.4375 20.7219 10.3355 20.9799 10.1315 21.1884C9.9275 21.3969 9.67533 21.5007 9.375 21.5H5.125C4.54062 21.5 4.04054 21.2876 3.62475 20.8627C3.20896 20.4378 3.00071 19.9264 3 19.3286Z" fill="white"/>
</svg>
