<svg width="16" height="12" viewBox="0 0 16 12" fill="none" xmlns="http://www.w3.org/2000/svg">
<path d="M0 2.66468C2.13286 0.93713 4.79527 -0.0037772 7.53999 1.13966e-05C10.3967 1.13966e-05 13.02 0.998011 15.08 2.66468L13.8233 4.22001C12.0459 2.78051 9.82721 1.9966 7.53999 2.00001C5.16 2.00001 2.97333 2.83201 1.25667 4.22001L0 2.66468ZM2.094 5.25801C3.63451 4.0102 5.55753 3.33059 7.53999 3.33334C9.52238 3.3304 11.4454 4.00977 12.986 5.25734L11.7287 6.81334C10.5438 5.85372 9.06473 5.33112 7.53999 5.33334C5.95333 5.33334 4.49533 5.88801 3.35066 6.81334L2.094 5.25801ZM4.18866 7.85134C5.13664 7.08341 6.32001 6.6651 7.53999 6.66667C8.80933 6.66667 9.97532 7.11 10.8913 7.85067L9.63466 9.40667C9.04213 8.92679 8.30247 8.66548 7.53999 8.66667C6.74666 8.66667 6.01799 8.944 5.44533 9.40667L4.18866 7.85134ZM6.28333 10.4447C6.63904 10.1571 7.08258 10.0002 7.53999 10C8.01599 10 8.45333 10.1667 8.79666 10.444L7.53999 12L6.28333 10.4447Z" fill="white"/>
</svg>
