<svg preserveAspectRatio="none" width="100%" height="100%" overflow="visible" style="display: block;" viewBox="0 0 120 139" fill="none" xmlns="http://www.w3.org/2000/svg">
<g id="Vector 2">
<path fill-rule="evenodd" clip-rule="evenodd" d="M18.75 11.2703H15V15.027H18.75V18.7838H22.5V15.027H26.25V11.2703H22.5V7.51351H18.75V11.2703ZM18.75 11.2703V15.027H22.5V11.2703H18.75Z" fill="currentColor"/>
<path fill-rule="evenodd" clip-rule="evenodd" d="M71.25 30.0541H67.5V33.8108H71.25V37.5676H75V33.8108H78.75V30.0541H75V26.2973H71.25V30.0541ZM71.25 30.0541V33.8108H75V30.0541H71.25Z" fill="currentColor"/>
<path fill-rule="evenodd" clip-rule="evenodd" d="M105 3.75676H101.25V7.51351H105V11.2703H108.75V7.51351H112.5V3.75676H108.75V0H105V3.75676ZM105 3.75676V7.51351H108.75V3.75676H105Z" fill="currentColor"/>
<path fill-rule="evenodd" clip-rule="evenodd" d="M26.25 56.3514H7.5V63.8649H0V78.8919H7.5V139H120V123.973H116.25V108.946H97.5V116.459H93.75V135.243H90V131.486H86.25V135.243H33.75V131.486H30V135.243H26.25V78.8919H30V71.3784H71.25V67.6216H30V63.8649H26.25V56.3514ZM15 60.1081H11.25V63.8649H15V60.1081ZM22.5 60.1081H18.75V63.8649H22.5V60.1081ZM26.25 67.6216H3.75V75.1351H26.25V67.6216ZM15 78.8919H22.5V86.4054H18.75V90.1622H22.5V101.432H18.75V105.189H22.5V116.459H18.75V120.216H22.5V131.486H18.75V135.243H11.25V127.73H15V123.973H11.25V112.703H15V108.946H11.25V97.6757H15V93.9189H11.25V82.6486H15V78.8919ZM97.5 120.216V135.243H105V120.216H97.5ZM108.75 127.73V135.243H116.25V127.73H108.75ZM101.25 112.703V116.459H108.75V123.973H112.5V112.703H101.25Z" fill="currentColor"/>
<path d="M18.75 86.4054V82.6486H15V86.4054H18.75Z" fill="currentColor"/>
<path d="M18.75 90.1622H15V93.9189H18.75V90.1622Z" fill="currentColor"/>
<path d="M18.75 101.432V97.6757H15V101.432H18.75Z" fill="currentColor"/>
<path d="M18.75 105.189H15V108.946H18.75V105.189Z" fill="currentColor"/>
<path d="M18.75 116.459V112.703H15V116.459H18.75Z" fill="currentColor"/>
<path d="M18.75 120.216H15V123.973H18.75V120.216Z" fill="currentColor"/>
<path d="M18.75 131.486V127.73H15V131.486H18.75Z" fill="currentColor"/>
<path d="M33.75 123.973H37.5V116.459H33.75V123.973Z" fill="currentColor"/>
<path d="M33.75 127.73V131.486H37.5V127.73H33.75Z" fill="currentColor"/>
<path d="M37.5 123.973V127.73H82.5V123.973H75V112.703H78.75V108.946H75V101.432H71.25V120.216H67.5V123.973H52.5V120.216H48.75V101.432H45V108.946H41.25V112.703H45V123.973H37.5Z" fill="currentColor"/>
<path d="M37.5 112.703V116.459H41.25V112.703H37.5Z" fill="currentColor"/>
<path d="M48.75 90.1622V101.432H52.5V90.1622H48.75Z" fill="currentColor"/>
<path d="M56.25 105.189V97.6757H63.75V105.189H56.25Z" fill="currentColor"/>
<path d="M52.5 82.6486V90.1622H56.25V82.6486H52.5Z" fill="currentColor"/>
<path d="M56.25 78.8919V82.6486H63.75V78.8919H56.25Z" fill="currentColor"/>
<path d="M67.5 82.6486H63.75V90.1622H67.5V82.6486Z" fill="currentColor"/>
<path d="M71.25 90.1622H67.5V101.432H71.25V90.1622Z" fill="currentColor"/>
<path d="M82.5 112.703H78.75V116.459H82.5V112.703Z" fill="currentColor"/>
<path d="M86.25 116.459H82.5V123.973H86.25V116.459Z" fill="currentColor"/>
<path d="M86.25 127.73H82.5V131.486H86.25V127.73Z" fill="currentColor"/>
</g>
</svg>
