<svg viewBox="0 0 32 37" fill="none" xmlns="http://www.w3.org/2000/svg">
<path fill-rule="evenodd" clip-rule="evenodd" d="M5 3H4V4H5V5H6V4H7V3H6V2H5V3ZM5 3V4H6V3H5Z" fill="currentColor"/>
<path fill-rule="evenodd" clip-rule="evenodd" d="M19 8H18V9H19V10H20V9H21V8H20V7H19V8ZM19 8V9H20V8H19Z" fill="currentColor"/>
<path fill-rule="evenodd" clip-rule="evenodd" d="M28 1H27V2H28V3H29V2H30V1H29V0H28V1ZM28 1V2H29V1H28Z" fill="currentColor"/>
<path fill-rule="evenodd" clip-rule="evenodd" d="M7 15H2V17H0V21H2V37H32V33H31V29H26V31H25V36H24V35H23V36H9V35H8V36H7V21H8V19H19V18H8V17H7V15ZM4 16H3V17H4V16ZM6 16H5V17H6V16ZM7 18H1V20H7V18ZM4 21H6V23H5V24H6V27H5V28H6V31H5V32H6V35H5V36H3V34H4V33H3V30H4V29H3V26H4V25H3V22H4V21ZM26 32V36H28V32H26ZM29 34V36H31V34H29ZM27 30V31H29V33H30V30H27Z" fill="currentColor"/>
<path d="M5 23V22H4V23H5Z" fill="currentColor"/>
<path d="M5 24H4V25H5V24Z" fill="currentColor"/>
<path d="M5 27V26H4V27H5Z" fill="currentColor"/>
<path d="M5 28H4V29H5V28Z" fill="currentColor"/>
<path d="M5 31V30H4V31H5Z" fill="currentColor"/>
<path d="M5 32H4V33H5V32Z" fill="currentColor"/>
<path d="M5 35V34H4V35H5Z" fill="currentColor"/>
<path d="M9 34V35H10V34H9Z" fill="currentColor"/>
<path d="M23 34H22V35H23V34Z" fill="currentColor"/>
<path d="M10 33V34H22V33H10Z" fill="currentColor"/>
</svg>
