<svg width="12" height="12" viewBox="0 0 12 12" fill="none" xmlns="http://www.w3.org/2000/svg">
<path d="M6 1.5H2.5C2.23478 1.5 1.98043 1.60536 1.79289 1.79289C1.60536 1.98043 1.5 2.23478 1.5 2.5V9.5C1.5 9.76522 1.60536 10.0196 1.79289 10.2071C1.98043 10.3946 2.23478 10.5 2.5 10.5H9.5C9.76522 10.5 10.0196 10.3946 10.2071 10.2071C10.3946 10.0196 10.5 9.76522 10.5 9.5V6" stroke="white" stroke-linecap="round" stroke-linejoin="round"/>
<path d="M9.18749 1.31249C9.3864 1.11358 9.65618 1.00183 9.93749 1.00183C10.2188 1.00183 10.4886 1.11358 10.6875 1.31249C10.8864 1.5114 10.9981 1.78119 10.9981 2.06249C10.9981 2.3438 10.8864 2.61358 10.6875 2.81249L6.18099 7.31949C6.06226 7.43812 5.91559 7.52495 5.75449 7.57199L4.31799 7.99199C4.27496 8.00454 4.22936 8.00529 4.18594 7.99417C4.14253 7.98305 4.1029 7.96046 4.07121 7.92877C4.03952 7.89708 4.01693 7.85745 4.00581 7.81404C3.99468 7.77062 3.99544 7.72502 4.00799 7.68199L4.42799 6.24549C4.47525 6.08452 4.56225 5.93802 4.68099 5.81949L9.18749 1.31249Z" stroke="white" stroke-linecap="round" stroke-linejoin="round"/>
</svg>
