<svg viewBox="0 0 20 20" fill="none" xmlns="http://www.w3.org/2000/svg">
<path d="M19 6H18V7H19V6Z" fill="currentColor"/>
<path d="M20 7H19V13H20V7Z" fill="currentColor"/>
<path d="M17 17V16H16V17H17Z" fill="currentColor"/>
<path d="M16 18V17H15V18H16Z" fill="currentColor"/>
<path d="M13 20V19H7V20H13Z" fill="currentColor"/>
<path d="M5 19H7V18H5V19Z" fill="currentColor"/>
<path d="M4 18H5V17H4V18Z" fill="currentColor"/>
<path d="M3 17H4V16H3V17Z" fill="currentColor"/>
<path d="M1 15H2V13H1V15Z" fill="currentColor"/>
<path d="M0 7V13H1V7H0Z" fill="currentColor"/>
<path d="M1 5V7H2V5H1Z" fill="currentColor"/>
<path d="M2 4V5H3V4H2Z" fill="currentColor"/>
<path d="M3 3V4H4V3H3Z" fill="currentColor"/>
<path d="M4 2V3H5V2H4Z" fill="currentColor"/>
<path d="M15 19V18H13V19H15Z" fill="currentColor"/>
<path d="M2 16H3V15H2V16Z" fill="currentColor"/>
<path d="M12 15H11V17H12V15Z" fill="currentColor"/>
<path d="M12 13V15H13V14H14V13H12Z" fill="currentColor"/>
<path d="M14 12V13H16V12H14Z" fill="currentColor"/>
<path d="M17 13H16V14H17V13Z" fill="currentColor"/>
<path d="M19 15V13H18V14H17V15V16H18V15H19Z" fill="currentColor"/>
<path d="M12 17V18H13V17H12Z" fill="currentColor"/>
<path d="M5 1V2H6V3H7V2V1H5Z" fill="currentColor"/>
<path d="M7 0V1H9V3H10V1H13V0H7Z" fill="currentColor"/>
<path d="M9 3H7V4H9V3Z" fill="currentColor"/>
<path d="M17 6V5H16V6H17Z" fill="currentColor"/>
<path d="M14 7V11H15V7H16V6H14V4H16V3H18V4H17V5H19V4H20V1H19V2H15V3H13V2H12V4H13V7H14Z" fill="currentColor"/>
<path fill-rule="evenodd" clip-rule="evenodd" d="M3 8V7H4V6H5V5H6V6H7V7H8V8H7V10H4V8H3ZM5 9V8H6V9H5Z" fill="currentColor"/>
<path fill-rule="evenodd" clip-rule="evenodd" d="M8 10V9H9V8H10V7H11V8H12V9H13V10H12V12H9V10H8ZM10 11V10H11V11H10Z" fill="currentColor"/>
<path fill-rule="evenodd" clip-rule="evenodd" d="M4 14V13H5V12H6V11H7V12H8V13H9V14H8V16H5V14H4ZM6 15V14H7V15H6Z" fill="currentColor"/>
</svg>
