<svg preserveAspectRatio="none" width="100%" height="100%" overflow="visible" style="display: block;" viewBox="0 0 20 20" fill="none" xmlns="http://www.w3.org/2000/svg">
<path id="Vector 3" fill-rule="evenodd" clip-rule="evenodd" d="M0 7V13H1V15H2V16H3V17H4V18H5V19H7V20H13V19H15V18H16V17H17V16H18V15H19V13H20V7H19V5H18V4H17V3H16V2H15V1H13V0H7V1H5V2H4V3H3V4H2V5H1V7H0ZM3 8H2V7H1V13H2V15H3V16H4V17H5V18H7V19H13V15H14V18H15V17H16V16H17V15H18V13H19V7H18V5H17V4H15V2H13V1H7V2H5V3H7V4H4V5H3V8ZM4 9H3V8H4V9ZM7 9V10H4V9H7ZM8 8V9H7V8H8ZM8 5H9V8H8V5ZM8 5V4H7V5H8ZM13 4H15V5H13V4ZM13 4V2H12V4H13ZM12 13H13V15H12V13ZM10 12H12V13H10V12ZM6 12V11H10V12H6ZM4 13V12H6V13H4ZM4 13H3V15H4V13ZM14 12V9H15V12H14ZM17 12V13H15V12H17ZM17 9H18V12H17V9ZM17 9V8H15V9H17Z" fill="currentColor"/>
</svg>
