<svg width="12" height="12" viewBox="0 0 12 12" fill="none" xmlns="http://www.w3.org/2000/svg">
<g clip-path="url(#clip0_23_31)">
<path d="M3.01499 7.095C3.10889 8.05175 3.5665 8.93595 4.29339 9.5651C5.02027 10.1943 5.96095 10.5204 6.92128 10.4761C7.88161 10.4318 8.7883 10.0206 9.45423 9.32723C10.1202 8.63388 10.4945 7.71133 10.5 6.75C10.5 4.68 8.81999 3 6.74999 3H1.28249L2.89499 4.6125C2.9633 4.68323 3.0011 4.77795 3.00024 4.87628C2.99939 4.9746 2.95995 5.06865 2.89042 5.13818C2.82089 5.20771 2.72684 5.24715 2.62851 5.248C2.53019 5.24886 2.43546 5.21106 2.36474 5.14275L0.114739 2.89275C0.0444371 2.82243 0.00494385 2.72706 0.00494385 2.62762C0.00494385 2.52819 0.0444371 2.43282 0.114739 2.3625L2.36474 0.1125C2.43546 0.0441903 2.53019 0.00639243 2.62851 0.00724684C2.72684 0.00810125 2.82089 0.0475396 2.89042 0.117068C2.95995 0.186596 2.99939 0.28065 3.00024 0.378974C3.0011 0.477298 2.9633 0.572024 2.89499 0.64275L1.28249 2.25525H6.74999C9.23249 2.25525 11.25 4.27275 11.25 6.75525C11.25 9.23775 9.23249 11.2552 6.74999 11.2552C4.40249 11.2552 2.47499 9.45525 2.26499 7.16025C2.25604 7.06119 2.2868 6.96263 2.35052 6.88626C2.41424 6.80989 2.50568 6.76195 2.60474 6.753C2.7038 6.74405 2.80235 6.77481 2.87873 6.83853C2.9551 6.90225 3.00304 6.99369 3.01199 7.09275L3.01499 7.095Z" fill="white"/>
<path d="M8.02498 7.57501C8.11399 7.61947 8.1817 7.69746 8.2132 7.79184C8.24471 7.88622 8.23743 7.98925 8.19298 8.07826C8.14852 8.16727 8.07052 8.23498 7.97615 8.26649C7.88177 8.29799 7.77874 8.29072 7.68973 8.24626L6.18973 7.49626C6.12752 7.46509 6.07521 7.41722 6.03865 7.35801C6.00209 7.29881 5.98273 7.23059 5.98273 7.16101V4.91101C5.98273 4.81155 6.02224 4.71617 6.09256 4.64585C6.16289 4.57552 6.25827 4.53601 6.35773 4.53601C6.45718 4.53601 6.55257 4.57552 6.62289 4.64585C6.69322 4.71617 6.73273 4.81155 6.73273 4.91101V6.92851L8.02273 7.57501H8.02498Z" fill="white"/>
</g>
<defs>
<clipPath id="clip0_23_31">
<rect width="12" height="12" fill="white"/>
</clipPath>
</defs>
</svg>
