<svg preserveAspectRatio="none" width="100%" height="100%" overflow="visible" style="display: block;" viewBox="0 0 14 19" fill="none" xmlns="http://www.w3.org/2000/svg">
<g id="Vector 6">
<path fill-rule="evenodd" clip-rule="evenodd" d="M6 15H5V17H6V18H7V19H8V17H9V15H8V14H6V15ZM8 15H7V16H6V17H8V15Z" fill="currentColor"/>
<path fill-rule="evenodd" clip-rule="evenodd" d="M0 10V12H1V13H3V12H5V13H9V12H11V13H13V12H14V10H13V9H12V8H11V6H10V3H9V1H8V0H6V1H5V3H4V6H3V8H2V9H1V10H0ZM1 10H2V9H3V12H1V10ZM4 6V11H5V12H9V11H10V6H9V3H8V1H6V3H5V6H4ZM12 9H11V12H13V10H12V9Z" fill="currentColor"/>
<path d="M6 7V5H8V7H6Z" fill="currentColor"/>
</g>
</svg>
